<svg xmlns="http://www.w3.org/2000/svg" width="256" height="256" viewBox="0 0 100 100"><path d="M47.96 50.68L47.96 67.56Q47.96 69.56 47.12 70.64Q46.28 71.72 44.44 72.68L44.44 72.68Q43.40 73.32 41.84 73.84Q40.28 74.36 38.40 74.72Q36.52 75.08 34.52 75.32Q32.52 75.56 30.52 75.56L30.52 75.56Q24.84 75.56 20 74.08Q15.16 72.60 11.60 69.48Q8.04 66.36 6.04 61.56Q4.04 56.76 4.04 50.12L4.04 50.12Q4.04 43.80 6.08 38.96Q8.12 34.12 11.68 30.92Q15.24 27.72 19.96 26.08Q24.68 24.44 30.12 24.44L30.12 24.44Q33.72 24.44 36.64 25.04Q39.56 25.64 41.68 26.64Q43.80 27.64 44.92 29.04Q46.04 30.44 46.04 31.96L46.04 31.96Q46.04 33.56 45.16 34.76Q44.28 35.96 43.16 36.60L43.16 36.60Q41.08 35.24 38.12 34.08Q35.16 32.92 30.84 32.92L30.84 32.92Q27.32 32.92 24.36 34.08Q21.40 35.24 19.28 37.40Q17.16 39.56 15.96 42.76Q14.76 45.96 14.76 50.04L14.76 50.04Q14.76 54.44 15.96 57.64Q17.16 60.84 19.28 62.96Q21.40 65.08 24.32 66.08Q27.24 67.08 30.68 67.08L30.68 67.08Q33 67.08 34.92 66.68Q36.84 66.28 37.88 65.72L37.88 65.72L37.88 54.60L27.64 54.60Q27.24 53.96 26.92 52.92Q26.60 51.88 26.60 50.60L26.60 50.60Q26.60 48.52 27.60 47.48Q28.60 46.44 30.20 46.44L30.20 46.44L43.64 46.44Q45.64 46.44 46.80 47.56Q47.96 48.68 47.96 50.68L47.96 50.68ZM95.64 31.96L95.64 31.96Q95.64 33.56 94.76 34.72Q93.88 35.88 92.76 36.52L92.76 36.52Q90.68 35.16 88.12 34.04Q85.56 32.92 81.80 32.92L81.80 32.92Q75 32.92 70.96 37.32Q66.92 41.72 66.92 50.04L66.92 50.04Q66.92 58.52 71.08 62.76Q75.24 67 82.28 67L82.28 67Q85.96 67 88.64 66Q91.32 65 93.40 63.64L93.40 63.64Q94.52 64.36 95.24 65.60Q95.96 66.84 95.96 68.44L95.96 68.44Q95.96 69.80 95.24 70.92Q94.52 72.04 92.84 72.92L92.84 72.92Q91.24 73.88 88.32 74.72Q85.40 75.56 81.08 75.56L81.08 75.56Q75.80 75.56 71.28 74Q66.76 72.44 63.40 69.28Q60.04 66.12 58.12 61.32Q56.20 56.52 56.20 50.04L56.20 50.04Q56.20 43.80 58.12 39.04Q60.04 34.28 63.36 31.04Q66.68 27.80 71.12 26.12Q75.56 24.44 80.52 24.44L80.52 24.44Q83.96 24.44 86.76 25.04Q89.56 25.64 91.56 26.68Q93.56 27.72 94.60 29.08Q95.64 30.44 95.64 31.96Z" fill="#fefeff"></path></svg>